<svg xmlns="http://www.w3.org/2000/svg" version="1.1" xmlns:xlink="http://www.w3.org/1999/xlink" xmlns:svgjs="http://svgjs.dev/svgjs" width="1440" height="560" preserveAspectRatio="none" viewBox="0 0 1440 560"><g mask="url(&quot;#SvgjsMask1047&quot;)" fill="none"><rect width="1440" height="560" x="0" y="0" fill="rgba(255, 199, 200, 1)"></rect><path d="M 0,93 C 48,167.4 144,451.2 240,465 C 336,478.8 384,187.2 480,162 C 576,136.8 624,352.4 720,339 C 816,325.6 864,60.8 960,95 C 1056,129.2 1104,479.8 1200,510 C 1296,540.2 1392,298.8 1440,246L1440 560L0 560z" fill="rgba(247, 174, 175, 1)"></path><path d="M 0,436 C 96,372.8 288,114.4 480,120 C 672,125.6 768,455.8 960,464 C 1152,472.2 1344,221.6 1440,161L1440 560L0 560z" fill="rgba(247, 188, 188, 1)"></path></g><defs><mask id="SvgjsMask1047"><rect width="1440" height="560" fill="#ffffff"></rect></mask></defs></svg>