<svg xmlns="http://www.w3.org/2000/svg" version="1.1" xmlns:xlink="http://www.w3.org/1999/xlink" xmlns:svgjs="http://svgjs.dev/svgjs" width="1440" height="560" preserveAspectRatio="none" viewBox="0 0 1440 560"><g mask="url(&quot;#SvgjsMask1000&quot;)" fill="none"><rect width="1440" height="560" x="0" y="0" fill="rgba(253, 131, 130, 1)"></rect><path d="M0,394.727C73.108,398.342,136.457,347.186,194.281,302.307C248.178,260.475,295.376,209.779,320.182,146.222C344.19,84.71,346.942,16.469,330.835,-47.567C315.675,-107.837,274.796,-155.918,232.688,-201.625C191.708,-246.107,148.958,-292.686,90.551,-308.387C32.694,-323.94,-25.591,-299.163,-84.216,-286.814C-148.184,-273.34,-222.094,-278.686,-268.592,-232.736C-315.702,-186.181,-317.386,-112.547,-326.889,-47C-336.402,18.619,-350.332,87.108,-323.771,147.861C-297.043,208.995,-235.371,243.23,-182.313,283.685C-124.559,327.721,-72.538,391.14,0,394.727" fill="#fd706f"></path><path d="M1440 1233.786C1562.092 1212.123 1638.4850000000001 1098.033 1740.125 1027.004 1836.876 959.3910000000001 1983.356 937.4359999999999 2023.105 826.2950000000001 2063.099 714.469 1971.989 601.189 1932.473 489.193 1900.795 399.414 1872.48 310.995 1814.613 235.39600000000002 1753.809 155.961 1687.466 72.27699999999999 1591.563 43.823999999999955 1495.5720000000001 15.345000000000027 1399.103 69.52199999999999 1299.844 82.673 1178.585 98.73899999999998 1030.606 43.91899999999998 943.408 129.7 857.246 214.462 904.189 361.08500000000004 894.379 481.551 885.247 593.686 860.262 703.091 887.83 812.167 919.335 936.817 960.434 1069.186 1062.621 1147.212 1167.318 1227.155 1310.298 1256.799 1440 1233.786" fill="#fd9695"></path></g><defs><mask id="SvgjsMask1000"><rect width="1440" height="560" fill="#ffffff"></rect></mask></defs></svg>